<?xml version="1.0" encoding="UTF-8"?>
<svg id="Layer_2" data-name="Layer 2" xmlns="http://www.w3.org/2000/svg" viewBox="0 0 23.25 21.79">
  <defs>
    <style>
      .cls-1 {
        fill: #c69963;
      }
    </style>
  </defs>
  <g id="Layer_3" data-name="Layer 3">
    <g>
      <path class="cls-1" d="m17.34,8.74c-.13,0-.26-.05-.35-.15-.2-.2-.2-.51,0-.71l3.51-3.52-3.51-3.52c-.2-.2-.2-.51,0-.71s.51-.2.71,0l3.87,3.87c.2.2.2.51,0,.71l-3.87,3.87c-.1.1-.23.15-.35.15h0Z"/>
      <path class="cls-1" d="m19.96,21.79H3.3c-1.82,0-3.3-1.48-3.3-3.3V7.08c0-1.82,1.48-3.29,3.3-3.29h6.17c.28,0,.5.22.5.5s-.22.5-.5.5H3.3c-1.27,0-2.3,1.03-2.3,2.29v11.42c0,1.27,1.03,2.3,2.3,2.3h16.66c1.27,0,2.29-1.03,2.29-2.3V7.08c0-.28.22-.5.5-.5s.5.22.5.5v11.42c0,1.82-1.48,3.3-3.29,3.3h0Z"/>
      <path class="cls-1" d="m4.19,17.88s-.06,0-.1,0c-.27-.05-.45-.32-.4-.59C5.2,9.51,11.99,3.87,19.84,3.87c.28,0,.5.22.5.5s-.22.5-.5.5c-7.37,0-13.75,5.3-15.16,12.61-.05.24-.26.41-.49.41h0Z"/>
    </g>
  </g>
</svg>