<?xml version="1.0" encoding="UTF-8"?>
<svg id="Layer_2" data-name="Layer 2" xmlns="http://www.w3.org/2000/svg" viewBox="0 0 24.33 14.17">
  <defs>
    <style>
      .cls-1 {
        fill: #c69963;
      }
    </style>
  </defs>
  <g id="Layer_3" data-name="Layer 3">
    <g>
      <path class="cls-1" d="m7.08,14.17c-3.91,0-7.08-3.18-7.08-7.08S3.18,0,7.08,0c2.6,0,5.02,1.46,6.24,3.75h7.67c1.84,0,3.33,1.5,3.33,3.33,0,1.66-1.24,3.07-2.89,3.29l-.25.03-.17-.17-1.02-1.16-1.33,1.52-1.33-1.52-1.14,1.3-.26.04h-2.61c-1.23,2.29-3.64,3.75-6.24,3.75h0ZM7.08,1C3.73,1,1,3.73,1,7.08s2.73,6.08,6.08,6.08c2.36,0,4.46-1.33,5.48-3.47l.14-.28h3.01l1.63-1.86,1.33,1.52,1.33-1.52,1.56,1.78c1.02-.25,1.77-1.18,1.77-2.25,0-1.29-1.05-2.33-2.33-2.33h-8.3l-.14-.28c-1.02-2.14-3.12-3.47-5.48-3.47h0Z"/>
      <path class="cls-1" d="m5.21,9c-1.06,0-1.92-.86-1.92-1.92s.86-1.92,1.92-1.92,1.92.86,1.92,1.92-.86,1.92-1.92,1.92h0Zm0-2.83c-.5,0-.92.41-.92.92s.41.92.92.92.92-.41.92-.92-.41-.92-.92-.92h0Z"/>
    </g>
  </g>
</svg>