<?xml version="1.0" encoding="UTF-8"?>
<svg id="Layer_2" data-name="Layer 2" xmlns="http://www.w3.org/2000/svg" viewBox="0 0 24.51 21.67">
  <defs>
    <style>
      .cls-1 {
        fill: #c69963;
      }
    </style>
  </defs>
  <g id="Layer_3" data-name="Layer 3">
    <g>
      <path class="cls-1" d="m12.26,15.17c-4.14,0-7.5-3.36-7.5-7.5V.5c0-.28.22-.5.5-.5h14c.28,0,.5.22.5.5v7.17c0,4.14-3.36,7.5-7.5,7.5h0ZM5.76,1v6.67c0,3.58,2.92,6.5,6.5,6.5s6.5-2.92,6.5-6.5V1H5.76Z"/>
      <g>
        <path class="cls-1" d="m4.83,7.77C2.17,7.77,0,5.6,0,2.94V.5c0-.28.22-.5.5-.5h4.83c.28,0,.5.22.5.5s-.22.5-.5.5H1v1.94c0,2.11,1.72,3.83,3.83,3.83.28,0,.5.22.5.5s-.22.5-.5.5h0Z"/>
        <path class="cls-1" d="m19.68,7.77c-.28,0-.5-.22-.5-.5s.22-.5.5-.5c2.11,0,3.83-1.72,3.83-3.83V1h-4.33c-.28,0-.5-.22-.5-.5s.22-.5.5-.5h4.83c.28,0,.5.22.5.5v2.44c0,2.67-2.17,4.83-4.83,4.83h0Z"/>
      </g>
      <path class="cls-1" d="m12.13,18.83c-.28,0-.5-.22-.5-.5v-3.33c0-.28.22-.5.5-.5s.5.22.5.5v3.33c0,.28-.22.5-.5.5h0Z"/>
      <path class="cls-1" d="m19.96,21.67H4.3c-.28,0-.5-.22-.5-.5s.22-.5.5-.5h15.66c.28,0,.5.22.5.5s-.22.5-.5.5h0Z"/>
      <path class="cls-1" d="m15.21,19.08h-6.16c-.28,0-.5-.22-.5-.5s.22-.5.5-.5h6.16c.28,0,.5.22.5.5s-.22.5-.5.5h0Z"/>
    </g>
  </g>
</svg>