<?xml version="1.0" encoding="UTF-8"?>
<svg id="Layer_2" data-name="Layer 2" xmlns="http://www.w3.org/2000/svg" viewBox="0 0 22.75 22.75">
  <defs>
    <style>
      .cls-1 {
        fill: #c69963;
      }
    </style>
  </defs>
  <g id="Layer_3" data-name="Layer 3">
    <g>
      <path class="cls-1" d="m11.38,22.75C5.1,22.75,0,17.65,0,11.38S5.1,0,11.38,0s11.38,5.1,11.38,11.38-5.1,11.38-11.38,11.38h0Zm0-21.75C5.65,1,1,5.65,1,11.38s4.65,10.38,10.38,10.38,10.38-4.65,10.38-10.38S17.1,1,11.38,1h0Z"/>
      <path class="cls-1" d="m11.38,22.75c-3.74,0-6.79-5.1-6.79-11.38S7.63,0,11.38,0s6.79,5.1,6.79,11.38-3.05,11.38-6.79,11.38h0Zm0-21.75c-3.19,0-5.79,4.65-5.79,10.38s2.6,10.38,5.79,10.38,5.79-4.65,5.79-10.38S14.57,1,11.38,1h0Z"/>
      <path class="cls-1" d="m11.38,22.75c-.28,0-.5-.22-.5-.5V.5c0-.28.22-.5.5-.5,6.27,0,11.38,5.1,11.38,11.38s-5.1,11.38-11.38,11.38h0Zm.5-21.74v20.73c5.49-.26,9.88-4.81,9.88-10.36S17.37,1.27,11.88,1.01h0Z"/>
      <path class="cls-1" d="m21.54,15.71H1.21c-.21,0-.39-.13-.47-.32-.49-1.3-.74-2.65-.74-4.01s.25-2.71.74-4.01c.07-.19.26-.32.47-.32h20.33c.21,0,.39.13.47.32.49,1.3.74,2.65.74,4.01s-.25,2.71-.74,4.01c-.07.19-.26.32-.47.32h0ZM1.56,14.71h19.63c.37-1.09.56-2.21.56-3.33s-.19-2.25-.56-3.33H1.56c-.37,1.09-.56,2.2-.56,3.33s.19,2.25.56,3.33h0Z"/>
    </g>
  </g>
</svg>