<?xml version="1.0" encoding="UTF-8"?>
<svg id="Layer_2" data-name="Layer 2" xmlns="http://www.w3.org/2000/svg" xmlns:xlink="http://www.w3.org/1999/xlink" viewBox="0 0 2100.91 581.01">
  <defs>
    <style>
      .cls-1 {
        fill: url(#linear-gradient-2);
      }

      .cls-2 {
        fill: url(#linear-gradient-20);
      }

      .cls-2, .cls-3, .cls-4, .cls-5, .cls-6, .cls-7, .cls-8, .cls-9, .cls-10, .cls-11, .cls-12, .cls-13, .cls-14, .cls-15, .cls-16, .cls-17, .cls-18, .cls-19, .cls-20, .cls-21, .cls-22, .cls-23, .cls-24, .cls-25, .cls-26 {
        stroke: #fff;
        stroke-miterlimit: 10;
        stroke-width: 5px;
      }

      .cls-27 {
        fill: url(#linear-gradient-17);
      }

      .cls-28 {
        fill: url(#linear-gradient-15);
      }

      .cls-29 {
        fill: url(#linear-gradient-18);
      }

      .cls-30 {
        fill: url(#linear-gradient-14);
      }

      .cls-31 {
        fill: url(#linear-gradient-6);
      }

      .cls-3 {
        fill: url(#linear-gradient-43);
      }

      .cls-4 {
        fill: url(#linear-gradient-26);
      }

      .cls-5 {
        fill: url(#linear-gradient-42);
      }

      .cls-6 {
        fill: url(#linear-gradient-24);
      }

      .cls-7 {
        fill: url(#linear-gradient-32);
      }

      .cls-8 {
        fill: url(#linear-gradient-28);
      }

      .cls-9 {
        fill: url(#linear-gradient-41);
      }

      .cls-32 {
        fill: url(#linear-gradient-11);
      }

      .cls-10 {
        fill: url(#linear-gradient-37);
      }

      .cls-33 {
        fill: url(#linear-gradient-10);
      }

      .cls-11 {
        fill: url(#linear-gradient-39);
      }

      .cls-12 {
        fill: url(#linear-gradient-31);
      }

      .cls-13 {
        fill: url(#linear-gradient-22);
      }

      .cls-34 {
        fill: url(#linear-gradient-16);
      }

      .cls-14 {
        fill: url(#linear-gradient-30);
      }

      .cls-15 {
        fill: url(#linear-gradient-40);
      }

      .cls-16 {
        fill: url(#linear-gradient-25);
      }

      .cls-17 {
        fill: url(#linear-gradient-34);
      }

      .cls-18 {
        fill: url(#linear-gradient-21);
      }

      .cls-19 {
        fill: url(#linear-gradient-33);
      }

      .cls-20 {
        fill: url(#linear-gradient-27);
      }

      .cls-21 {
        fill: url(#linear-gradient-23);
      }

      .cls-22 {
        fill: url(#linear-gradient-38);
      }

      .cls-35 {
        fill: url(#linear-gradient-5);
      }

      .cls-23 {
        fill: url(#linear-gradient-36);
      }

      .cls-36 {
        fill: url(#linear-gradient-7);
      }

      .cls-24 {
        fill: url(#linear-gradient-29);
      }

      .cls-37 {
        fill: url(#linear-gradient-9);
      }

      .cls-38 {
        fill: url(#linear-gradient-3);
      }

      .cls-39 {
        fill: url(#linear-gradient);
      }

      .cls-40 {
        fill: url(#linear-gradient-19);
      }

      .cls-41 {
        fill: url(#linear-gradient-4);
      }

      .cls-42 {
        fill: url(#linear-gradient-8);
      }

      .cls-25 {
        fill: url(#linear-gradient-44);
      }

      .cls-43 {
        fill: url(#linear-gradient-12);
      }

      .cls-26 {
        fill: url(#linear-gradient-35);
      }

      .cls-44 {
        fill: url(#linear-gradient-13);
      }
    </style>
    <linearGradient id="linear-gradient" x1="817.17" y1="21.83" x2="2034.16" y2="568.73" gradientUnits="userSpaceOnUse">
      <stop offset="0" stop-color="#020302"/>
      <stop offset=".5" stop-color="#41434c"/>
      <stop offset="1" stop-color="#020303"/>
    </linearGradient>
    <linearGradient id="linear-gradient-2" x1="801.12" y1="57.54" x2="2018.11" y2="604.43" xlink:href="#linear-gradient"/>
    <linearGradient id="linear-gradient-3" x1="896.05" y1="-153.71" x2="2113.04" y2="393.19" xlink:href="#linear-gradient"/>
    <linearGradient id="linear-gradient-4" x1="850.78" y1="-52.97" x2="2067.77" y2="493.93" xlink:href="#linear-gradient"/>
    <linearGradient id="linear-gradient-5" x1="995.01" y1="-373.92" x2="2212" y2="172.98" xlink:href="#linear-gradient"/>
    <linearGradient id="linear-gradient-6" x1="985.03" y1="-351.71" x2="2202.02" y2="195.19" xlink:href="#linear-gradient"/>
    <linearGradient id="linear-gradient-7" x1="669.32" y1="350.84" x2="1886.31" y2="897.73" xlink:href="#linear-gradient"/>
    <linearGradient id="linear-gradient-8" x1="715.28" y1="248.56" x2="1932.27" y2="795.46" xlink:href="#linear-gradient"/>
    <linearGradient id="linear-gradient-9" x1="772.82" y1="120.5" x2="1989.82" y2="667.4" xlink:href="#linear-gradient"/>
    <linearGradient id="linear-gradient-10" x1="833.45" y1="-14.41" x2="2050.44" y2="532.49" xlink:href="#linear-gradient"/>
    <linearGradient id="linear-gradient-11" x1="798.25" y1="63.91" x2="2015.25" y2="610.81" xlink:href="#linear-gradient"/>
    <linearGradient id="linear-gradient-12" x1="765.26" y1="137.33" x2="1982.26" y2="684.22" xlink:href="#linear-gradient"/>
    <linearGradient id="linear-gradient-13" x1="830.83" y1="-8.57" x2="2047.82" y2="538.33" xlink:href="#linear-gradient"/>
    <linearGradient id="linear-gradient-14" x1="890.62" y1="-141.61" x2="2107.61" y2="405.28" xlink:href="#linear-gradient"/>
    <linearGradient id="linear-gradient-15" x1="837.18" y1="-22.7" x2="2054.17" y2="524.19" xlink:href="#linear-gradient"/>
    <linearGradient id="linear-gradient-16" x1="731.34" y1="212.81" x2="1948.34" y2="759.7" xlink:href="#linear-gradient"/>
    <linearGradient id="linear-gradient-17" x1="715.38" y1="248.33" x2="1932.37" y2="795.23" xlink:href="#linear-gradient"/>
    <linearGradient id="linear-gradient-18" x1="942.15" y1="-256.29" x2="2159.14" y2="290.61" xlink:href="#linear-gradient"/>
    <linearGradient id="linear-gradient-19" x1="933.74" y1="-237.59" x2="2150.74" y2="309.31" xlink:href="#linear-gradient"/>
    <linearGradient id="linear-gradient-20" x1="527.76" y1="-5.61" x2="209.24" y2="583.35" gradientUnits="userSpaceOnUse">
      <stop offset="0" stop-color="#020302"/>
      <stop offset=".5" stop-color="#020302"/>
      <stop offset="1" stop-color="#020303"/>
    </linearGradient>
    <linearGradient id="linear-gradient-21" x1="321.82" y1="-116.99" x2="3.3" y2="471.98" gradientUnits="userSpaceOnUse">
      <stop offset="0" stop-color="#020302"/>
      <stop offset=".5" stop-color="#4e525d"/>
      <stop offset="1" stop-color="#020303"/>
    </linearGradient>
    <linearGradient id="linear-gradient-22" x1="321.82" y1="-116.99" x2="3.3" y2="471.98" xlink:href="#linear-gradient-21"/>
    <linearGradient id="linear-gradient-23" x1="325.18" y1="-115.17" x2="6.66" y2="473.8" xlink:href="#linear-gradient-21"/>
    <linearGradient id="linear-gradient-24" x1="325.18" y1="-115.17" x2="6.66" y2="473.8" xlink:href="#linear-gradient-21"/>
    <linearGradient id="linear-gradient-25" x1="328.55" y1="-113.35" x2="10.03" y2="475.61" xlink:href="#linear-gradient-21"/>
    <linearGradient id="linear-gradient-26" x1="328.55" y1="-113.35" x2="10.03" y2="475.61" xlink:href="#linear-gradient-21"/>
    <linearGradient id="linear-gradient-27" x1="331.49" y1="-111.76" x2="12.97" y2="477.21" xlink:href="#linear-gradient-21"/>
    <linearGradient id="linear-gradient-28" x1="430.68" y1="-58.12" x2="112.16" y2="530.85" xlink:href="#linear-gradient-21"/>
    <linearGradient id="linear-gradient-29" x1="529.44" y1="-4.7" x2="210.92" y2="584.26" xlink:href="#linear-gradient-21"/>
    <linearGradient id="linear-gradient-30" x1="532.81" y1="-2.88" x2="214.28" y2="586.08" xlink:href="#linear-gradient-21"/>
    <linearGradient id="linear-gradient-31" x1="532.81" y1="-2.88" x2="214.28" y2="586.08" xlink:href="#linear-gradient-21"/>
    <linearGradient id="linear-gradient-32" x1="535.75" y1="-1.29" x2="217.23" y2="587.67" xlink:href="#linear-gradient-21"/>
    <linearGradient id="linear-gradient-33" x1="526.08" y1="-6.52" x2="207.56" y2="582.44" xlink:href="#linear-gradient-21"/>
    <linearGradient id="linear-gradient-34" x1="522.72" y1="-8.34" x2="204.19" y2="580.62" xlink:href="#linear-gradient-21"/>
    <linearGradient id="linear-gradient-35" x1="522.72" y1="-8.34" x2="204.19" y2="580.62" xlink:href="#linear-gradient-21"/>
    <linearGradient id="linear-gradient-36" x1="519.35" y1="-10.16" x2="200.83" y2="578.81" xlink:href="#linear-gradient-21"/>
    <linearGradient id="linear-gradient-37" x1="624.84" y1="46.89" x2="306.32" y2="635.86" xlink:href="#linear-gradient-21"/>
    <linearGradient id="linear-gradient-38" x1="723.61" y1="100.31" x2="405.09" y2="689.27" xlink:href="#linear-gradient-21"/>
    <linearGradient id="linear-gradient-39" x1="726.97" y1="102.13" x2="408.45" y2="691.09" xlink:href="#linear-gradient-21"/>
    <linearGradient id="linear-gradient-40" x1="726.97" y1="102.13" x2="408.45" y2="691.09" xlink:href="#linear-gradient-21"/>
    <linearGradient id="linear-gradient-41" x1="730.34" y1="103.95" x2="411.82" y2="692.91" xlink:href="#linear-gradient-21"/>
    <linearGradient id="linear-gradient-42" x1="730.34" y1="103.95" x2="411.82" y2="692.91" xlink:href="#linear-gradient-21"/>
    <linearGradient id="linear-gradient-43" x1="733.7" y1="105.76" x2="415.18" y2="694.73" xlink:href="#linear-gradient-21"/>
    <linearGradient id="linear-gradient-44" x1="733.7" y1="105.76" x2="415.18" y2="694.73" xlink:href="#linear-gradient-21"/>
  </defs>
  <g id="Layer_2-2" data-name="Layer 2">
    <g>
      <path class="cls-39" d="m890.18,80.03l-.02-71.37c0-1.98-1.61-3.59-3.59-3.59-12.89,0-25.77,0-38.66,0-1.98,0-3.59,1.61-3.59,3.59v71.35c0,1.98,1.61,3.59,3.59,3.59,12.89,0,25.78.01,38.67.02,1.98,0,3.59-1.61,3.59-3.59Z"/>
      <path class="cls-1" d="m1034.15,8.56v222.04c0,1.93-1.56,3.49-3.49,3.49-12.95.01-25.9.02-38.86.03-1.93,0-3.49-1.56-3.49-3.49,0-28.21.02-56.42.02-84.62,0-1.93-1.56-3.49-3.49-3.49-30.4,0-60.8,0-91.2,0-1.93,0-3.49,1.56-3.49,3.49,0,28.21.01,56.42.02,84.63,0,1.93-1.56,3.49-3.49,3.49h-38.87c-1.93,0-3.49-1.56-3.49-3.49V100.18c0-1.93,1.56-3.49,3.49-3.49l137.04.07c1.93,0,3.49-1.56,3.49-3.49-.01-28.24-.02-56.47-.04-84.71,0-1.93,1.56-3.49,3.49-3.49h38.86c1.93,0,3.49,1.56,3.49,3.49Z"/>
      <path class="cls-38" d="m1315.83,83.65c13.99,0,27.98,0,41.98,0,1.96,0,3.55-1.59,3.55-3.55V8.62c0-1.96-1.59-3.55-3.55-3.55h-41.98c-1.96,0-3.55,1.59-3.55,3.55v71.48c0,1.96,1.59,3.55,3.55,3.55Z"/>
      <path class="cls-41" d="m1315.83,96.72c13.99.01,27.98.03,41.98.04,1.96,0,3.55,1.59,3.55,3.55v130.27c0,1.96-1.59,3.55-3.55,3.55h-41.98c-1.96,0-3.55-1.59-3.55-3.55V100.27c0-1.96,1.59-3.55,3.55-3.55Z"/>
      <path class="cls-35" d="m1923.13,82.19c.66.92,1.7,1.46,2.83,1.46,7.08.03,14.2.05,21.35.04,6.42,0,12.8-.03,19.16-.08,1.94-.01,3.49-1.6,3.48-3.54-.01-2.56-.02-5.13-.03-7.69,0-2.41-.01-4.81-.02-7.21,0-.74-.23-1.45-.67-2.05-6.88-9.45-13.77-18.96-20.67-28.55-6.74-9.37-13.43-18.71-20.05-28.02-.67-.94-1.74-1.49-2.89-1.48-7.04.03-14.12.05-21.22.05-6.43,0-12.83-.01-19.22-.04-1.94,0-3.51,1.54-3.52,3.47-.04,4.94-.07,9.91-.08,14.89,0,.78.24,1.54.7,2.16,6.89,9.5,13.78,19.03,20.67,28.58,6.75,9.34,13.47,18.68,20.18,28Z"/>
      <path class="cls-31" d="m2056.92,5.06c13.39-.05,26.86-.05,40.42,0,1.92,0,3.48,1.56,3.49,3.48l.02,6.32c0,2.91.03,5.81.06,8.68,0,.73-.22,1.44-.63,2.04-28.26,40.54-55.62,75.48-83.88,116.02-.41.59-.64,1.29-.64,2.01-.04,14.31-.05,28.66-.03,43.07.02,14.66.07,29.27.15,43.83.01,2.01-1.61,3.63-3.63,3.63h-41.93c-2,0-3.63-1.61-3.64-3.61-.07-16.2-.1-32.46-.1-48.78,0-16.05.04-32.03.11-47.96,0-.72.22-1.41.63-2,14.4-20.94,28.87-41.93,43.43-62.95,14.42-20.83,28.84-41.58,43.25-62.24.67-.96,1.76-1.53,2.93-1.54Z"/>
      <path class="cls-36" d="m913.66,511.04c-1.74,3.84-5.57,6.28-9.79,6.23-3.65-.04-7.33-.07-11.03-.07-5.86-.01-11.65.02-17.38.1-3.68.05-7.1-1.79-9.08-4.89-.51-.8-1.04-1.63-1.91-3.07,0,0-.53-1.51-.15-3.43.5-2.53,16.74-36.71,39.33-83.11,10.89-24.22,21.77-48.43,32.66-72.65.58-1.29,1.87-2.13,3.29-2.13,12.41,0,24.81,0,37.22,0,1.41,0,2.69.84,3.25,2.14l89.98,208.92c.1.47.19.93.29,1.41,0,3.97.08,7.95.04,11.92-.02,1.97-1.65,3.56-3.63,3.56h-210.3c-1.23,0-2.38-.68-3-1.74-4.4-7.59-4.16-7.3-8.62-14.85-.68-1.16-.7-2.6-.03-3.77,4.1-7.18,8.18-14.37,12.17-21.6,1.25-2.26,3.61-3.66,6.19-3.66h136.81c2.49,0,4.17-2.55,3.19-4.84-14.55-33.95-29.1-67.89-43.66-101.84-1.19-2.78-5.12-2.82-6.36-.06-13.16,29.14-26.32,58.29-39.48,87.43Z"/>
      <path class="cls-42" d="m1337.56,575.97c12.89,0,25.78,0,38.66,0,1.91,0,3.47-1.55,3.47-3.47,0-23.74,0-47.48,0-71.21,0-1.92-1.55-3.47-3.47-3.47-12.88.01-25.77.02-38.65.03-1.91,0-3.46,1.55-3.46,3.47v71.19c0,1.91,1.54,3.47,3.46,3.47Z"/>
      <path class="cls-37" d="m1334.14,366.48c.03-4.85.03-9.85-.02-14.79-.02-1.97,1.58-3.58,3.56-3.6,13.46-.07,26.84-.04,40.26-.05,1.09,0,2.12.5,2.79,1.37,20.44,26.58,40.88,53.16,61.32,79.75,1.41,1.84,4.19,1.84,5.6,0,20.41-26.57,40.81-53.14,61.22-79.71.66-.86,1.69-1.36,2.77-1.36,13.83-.06,26.95,0,40.37-.05,1.94,0,3.53,1.57,3.53,3.51v220.92c0,1.94-1.57,3.51-3.51,3.51h-38.52c-1.99,0-3.59-1.61-3.59-3.6.01-44.2.02-88.39.03-132.59,0-3.39-4.28-4.87-6.37-2.2-17.03,21.77-34.06,43.53-51.09,65.3-.72.92-1.85,1.46-3.02,1.45-3.63-.01-5.77-.02-9.34-.01-1.11,0-2.19-.52-2.86-1.4-34.14-44.79-68.27-89.59-102.41-134.38-.45-.6-.7-1.31-.69-2.06Z"/>
      <path class="cls-33" d="m1607.8,393.57l165.76-.05c1.91,0,3.45-1.55,3.45-3.46-.03-12.87-.05-25.73-.08-38.6,0-1.9-1.55-3.44-3.45-3.44h-165.68c-1.91,0-3.45,1.55-3.45,3.45v38.65c0,1.91,1.55,3.45,3.45,3.45Z"/>
      <path class="cls-32" d="m1607.79,439.2l152.65.02c1.91,0,3.45,1.55,3.45,3.45v38.64c0,1.91-1.54,3.45-3.45,3.45-50.88,0-101.77.02-152.65.03-1.91,0-3.45-1.55-3.45-3.45v-38.68c0-1.91,1.55-3.45,3.45-3.45Z"/>
      <path class="cls-43" d="m1607.79,530.46c55.25-.02,110.5-.03,165.75-.05,1.91,0,3.46,1.55,3.45,3.46-.03,12.88-.05,25.77-.08,38.65,0,1.9-1.55,3.44-3.45,3.44h-165.67c-1.91,0-3.45-1.55-3.45-3.45v-38.6c0-1.91,1.54-3.45,3.45-3.45Z"/>
      <path class="cls-44" d="m1816.24,530.38c35.38.02,70.75.04,106.13.06,2.47,0,4.89-.53,7.1-1.64,7.37-3.7,19.28-11.17,28.91-24.94,3.32-4.75,12.92-18.87,13.8-39.29.95-22.06-8.47-46.67-28.56-60.78-6.92-4.86-13.77-7.53-19.08-9.06-2.63-.75-5.35-1.07-8.09-1.07-33.38,0-66.76,0-100.14-.01-1.96,0-3.55-1.59-3.55-3.56v-38.5c0-1.96,1.59-3.56,3.56-3.56h117.75c1.61,0,3.21.19,4.76.62,4.64,1.29,10.54,3.27,17.06,6.34,6.04,2.85,23.83,11.92,39.38,31.42,3.34,4.18,12.14,15.83,18.42,33.3,1.44,4.01,6.95,20.01,7.04,41.82.08,18.61-3.81,32.9-5.89,39.52-3.19,10.15-8.93,27.78-24.44,43.9-7.53,7.83-14.7,12.54-19.34,15.55-12.32,7.99-23.95,12.43-32.54,14.97-1.32.39-2.65.56-4.03.56-39.42-.02-78.83-.04-118.25-.06-1.93,0-3.49-1.56-3.49-3.49v-38.61c0-1.93,1.56-3.49,3.49-3.49Z"/>
      <path class="cls-30" d="m1410.72,188.32l107.15.04c.35,0,.67-.05,1-.18,6.57-2.6,21.76-9.69,33.55-26.16,12.52-17.5,13.68-35.09,13.87-39.49.98-23.18-9.46-47.1-28.7-61.08-8.22-5.98-16.37-8.92-22.1-10.44-.26-.07-.51-.1-.78-.1-34.66-.03-69.33-.07-103.99-.1-1.96,0-3.55-1.59-3.55-3.56V8.59c0-1.94,1.58-3.52,3.52-3.52h119.98c.55.08,1.05.16,1.6.24,4.56,1.43,10.71,3.65,17.63,7.1,22.9,11.41,36,27.1,39.57,31.58,3.35,4.2,12.2,15.91,18.51,33.47,1.45,4.03,6.98,20.11,7.08,42.03.08,18.7-3.83,33.06-5.92,39.71-3.2,10.2-8.98,27.91-24.56,44.11-7.61,7.91-14.89,12.69-19.43,15.62-11.98,7.75-23.26,12.1-31.59,14.62-1.36.41-2.74.59-4.16.59h-118.64c-1.98,0-3.58-1.6-3.58-3.58v-38.69c0-1.96,1.59-3.54,3.54-3.54Z"/>
      <path class="cls-28" d="m1086.87,50.92l113.46-.03c.4,0,.83.07,1.21.19,6.76,2.21,11.3,5.44,13.89,7.61,1.66,1.39,3.68,3.1,5.66,5.92,1.16,1.65,4.74,6.87,4.97,14.4.2,6.56-2.24,11.28-3.76,14.22-1.12,2.17-3.55,6.76-8.74,10.78-4.7,3.65-9.41,5.08-12.17,5.68-.27.06-.51.08-.78.08-37.92.01-75.85.02-113.77.03-2,0-3.62,1.62-3.62,3.62,0,39.03.02,78.07.03,117.1,0,1.99,1.61,3.6,3.6,3.6h38.52c1.93,0,3.5-1.56,3.5-3.49l.16-71.46c0-1.99,1.62-3.62,3.61-3.65,16.68-.23,33.18.05,49.77.08,1.38,0,2.67.76,3.37,1.95,25.07,42.82,43.27,73.92,43.79,74.79.07.12.27.45.63.79.66.62,1.53.98,2.46.98,14.51.02,29.09.21,43.53.06,1.86-.02,3.43-1.49,3.49-3.35.16-5.01-.11-10.17-.13-15.25,0-.7-.21-1.38-.61-1.96-14.26-20.92-28.52-41.83-42.78-62.75-1.25-1.83-.54-4.31,1.49-5.2,6.2-2.74,14.43-7.48,21.76-15.63,16.8-18.7,16.62-41.76,16.55-51-.07-8.75-.42-25.73-11.53-42.67-15.33-23.39-40.02-29.74-46.77-31.22-.25-.06-.47-.07-.73-.07-43.4,0-86.81,0-130.21,0-1.93,0-3.5,1.57-3.49,3.5.03,12.94.06,25.87.08,38.81,0,1.96,1.59,3.54,3.55,3.54Z"/>
      <path class="cls-34" d="m1142.03,422.7l-.02-71.16c0-1.93-1.57-3.5-3.5-3.5h-38.61c-1.94,0-3.5,1.57-3.5,3.51v71.14c0,1.93,1.57,3.5,3.5,3.5l38.62.02c1.94,0,3.51-1.57,3.51-3.5Z"/>
      <path class="cls-27" d="m1285.31,351.54v220.9c0,1.93-1.57,3.5-3.5,3.5-12.87.01-25.74.02-38.61.03-1.94,0-3.51-1.57-3.51-3.5,0-28.05.02-56.1.02-84.15,0-1.94-1.57-3.5-3.5-3.5-30.23,0-60.46,0-90.69,0-1.94,0-3.5,1.57-3.5,3.5,0,28.05.01,56.1.02,84.15,0,1.94-1.57,3.5-3.5,3.5h-38.62c-1.94,0-3.5-1.57-3.5-3.5v-129.76c0-1.94,1.57-3.5,3.51-3.5l136.31.07c1.94,0,3.51-1.57,3.51-3.51-.01-28.08-.02-56.16-.04-84.23,0-1.94,1.57-3.51,3.5-3.51h38.61c1.94,0,3.5,1.57,3.5,3.5Z"/>
      <path class="cls-29" d="m1760.9,44.49c0,1.61,1.07,3.04,2.63,3.44,5.15,1.31,11.77,3.53,18.89,7.4,6.09,3.31,19.18,10.63,28.73,26.19,2.1,3.43,9.83,16.69,10.26,35.55.15,6.41-.18,29.64-17.9,49.78-14.2,16.14-31.66,21.32-39.79,23.02-1.64.34-2.83,1.77-2.83,3.45v35.78c0,1.94,1.57,3.51,3.52,3.51h22.58c1.98,0,3.94-.27,5.82-.89,5.69-1.87,12.63-4.63,20.11-8.78,14.49-8.04,23.56-17.15,26.01-19.67,17.17-17.73,23.72-37.26,26.12-46.01,3.43-12.54,3.46-21.77,3.51-38.8.05-17.1-.02-29.9-5.76-45.43-.88-2.37-4.99-13.21-13.92-25.37-2.7-3.68-10.12-13.31-22.45-22.76-5.59-4.28-16.21-12.28-32.18-17.24-3.71-1.15-6.95-1.91-9.44-2.41-.83-.17-1.63-.23-2.48-.23h-17.83c-1.99,0-3.61,1.62-3.61,3.61v35.86Z"/>
      <path class="cls-40" d="m1744.01,44.57c0,1.56-1.04,2.96-2.55,3.34-5.16,1.31-11.81,3.53-18.96,7.42-6.09,3.31-19.18,10.63-28.73,26.19-2.1,3.43-9.83,16.69-10.26,35.55-.15,6.41.18,29.64,17.9,49.78,14.2,16.14,31.66,21.32,39.79,23.02,1.64.34,2.83,1.77,2.83,3.45v35.78c0,1.94-1.57,3.51-3.52,3.51h-22.03c-2.55,0-5.05-.44-7.47-1.26-5.47-1.86-12.01-4.53-19.01-8.42-14.49-8.04-23.56-17.15-26.01-19.67-17.17-17.73-23.72-37.26-26.12-46.01-3.43-12.54-3.46-21.77-3.51-38.8-.05-17.1.02-29.9,5.76-45.43.88-2.37,4.99-13.21,13.92-25.37,2.7-3.68,10.12-13.31,22.45-22.76,5.59-4.28,16.21-12.28,32.18-17.24,3.66-1.14,6.87-1.89,9.35-2.39.89-.18,1.76-.25,2.67-.25h17.77c1.97,0,3.58,1.6,3.58,3.58v35.97Z"/>
    </g>
    <g>
      <path class="cls-2" d="m70.34,462.02c66-114,132-228,198-342h132l-66,114h132S581.34,34.02,598.34,5.02h-132l-66,115L334.34,5.02h-132C136.34,120.02,70.34,234.02,4.34,348.02l66,114ZM664.34,120.02c-66,114-132,228-198,342h-132l66,114h132s173-300,198-342l-66-114Zm-330,342l66-114h-132s-121,209-132,228h132l66-114h0Z"/>
      <polygon class="cls-18" points="70.34 462.02 136.34 348.02 4.34 348.02 70.34 462.02"/>
      <polygon class="cls-13" points="4.34 348.02 136.34 348.02 70.34 234.02 4.34 348.02"/>
      <polygon class="cls-21" points="70.34 234.02 136.34 348.02 202.34 234.02 70.34 234.02"/>
      <polygon class="cls-6" points="70.34 234.02 202.34 234.02 136.34 120.02 70.34 234.02"/>
      <polygon class="cls-16" points="136.34 120.02 202.34 234.02 268.34 120.02 136.34 120.02"/>
      <polygon class="cls-4" points="136.34 120.02 268.34 120.02 202.34 5.02 136.34 120.02"/>
      <polygon class="cls-20" points="202.34 5.02 268.34 120.02 334.34 5.02 202.34 5.02"/>
      <polygon class="cls-8" points="334.34 5.02 268.34 120.02 400.34 120.02 334.34 5.02"/>
      <polygon class="cls-24" points="400.34 120.02 334.34 234.02 466.34 234.02 400.34 120.02"/>
      <polygon class="cls-14" points="400.34 120.02 466.34 234.02 532.34 120.02 400.34 120.02"/>
      <polygon class="cls-12" points="400.34 120.02 532.34 120.02 466.34 5.02 400.34 120.02"/>
      <polygon class="cls-7" points="466.34 5.02 532.34 120.02 598.34 5.02 466.34 5.02"/>
      <polygon class="cls-19" points="400.34 348.02 268.34 348.02 334.34 462.02 400.34 348.02"/>
      <polygon class="cls-17" points="334.34 462.02 268.34 348.02 202.34 462.02 334.34 462.02"/>
      <polygon class="cls-26" points="334.34 462.02 202.34 462.02 268.34 576.02 334.34 462.02"/>
      <polygon class="cls-23" points="268.34 576.02 202.34 462.02 136.34 576.02 268.34 576.02"/>
      <polygon class="cls-10" points="334.34 462.02 400.34 576.02 466.34 462.02 334.34 462.02"/>
      <polygon class="cls-22" points="466.34 462.02 400.34 576.02 532.34 576.02 466.34 462.02"/>
      <polygon class="cls-11" points="466.34 462.02 532.34 576.02 598.34 462.02 466.34 462.02"/>
      <polygon class="cls-15" points="466.34 462.02 598.34 462.02 532.34 348.02 466.34 462.02"/>
      <polygon class="cls-9" points="532.34 348.02 598.34 462.02 664.34 348.02 532.34 348.02"/>
      <polygon class="cls-5" points="532.34 348.02 664.34 348.02 598.34 234.02 532.34 348.02"/>
      <polygon class="cls-3" points="598.34 234.02 664.34 348.02 730.34 234.02 598.34 234.02"/>
      <polygon class="cls-25" points="598.34 234.02 730.34 234.02 664.34 120.02 598.34 234.02"/>
    </g>
  </g>
</svg>