<?xml version="1.0" encoding="utf-8"?>
<!-- Generator: Adobe Illustrator 27.4.1, SVG Export Plug-In . SVG Version: 6.00 Build 0)  -->
<svg version="1.1" id="Layer_2_00000016796630398314051460000015400585119587624376_"
	 xmlns="http://www.w3.org/2000/svg" xmlns:xlink="http://www.w3.org/1999/xlink" x="0px" y="0px" viewBox="0 0 2100.9 581"
	 style="enable-background:new 0 0 2100.9 581;" xml:space="preserve">
<style type="text/css">
	.st0{fill:#C69963;}
	.st1{fill:#C69863;stroke:#FFFFFF;stroke-width:5;stroke-miterlimit:10;}
</style>
<g>
	<path class="st0" d="M890.2,80l0-71.4c0-2-1.6-3.6-3.6-3.6c-12.9,0-25.8,0-38.7,0c-2,0-3.6,1.6-3.6,3.6V80c0,2,1.6,3.6,3.6,3.6
		c12.9,0,25.8,0,38.7,0C888.6,83.6,890.2,82,890.2,80L890.2,80z"/>
	<path class="st0" d="M1034.2,8.6v222c0,1.9-1.6,3.5-3.5,3.5c-13,0-25.9,0-38.9,0c-1.9,0-3.5-1.6-3.5-3.5c0-28.2,0-56.4,0-84.6
		c0-1.9-1.6-3.5-3.5-3.5c-30.4,0-60.8,0-91.2,0c-1.9,0-3.5,1.6-3.5,3.5c0,28.2,0,56.4,0,84.6c0,1.9-1.6,3.5-3.5,3.5h-38.9
		c-1.9,0-3.5-1.6-3.5-3.5V100.2c0-1.9,1.6-3.5,3.5-3.5l137,0.1c1.9,0,3.5-1.6,3.5-3.5c0-28.2,0-56.5,0-84.7c0-1.9,1.6-3.5,3.5-3.5
		h38.9C1032.6,5.1,1034.1,6.6,1034.2,8.6L1034.2,8.6z"/>
	<path class="st0" d="M1315.8,83.7c14,0,28,0,42,0c2,0,3.6-1.6,3.6-3.6V8.6c0-2-1.6-3.6-3.6-3.6h-42c-2,0-3.6,1.6-3.6,3.6v71.5
		C1312.3,82.1,1313.9,83.7,1315.8,83.7z"/>
	<path class="st0" d="M1315.8,96.7c14,0,28,0,42,0c2,0,3.6,1.6,3.6,3.6v130.3c0,2-1.6,3.6-3.6,3.6h-42c-2,0-3.6-1.6-3.6-3.6V100.3
		C1312.3,98.3,1313.9,96.7,1315.8,96.7z"/>
	<path class="st0" d="M1923.1,82.2c0.7,0.9,1.7,1.5,2.8,1.5c7.1,0,14.2,0.1,21.3,0c6.4,0,12.8,0,19.2-0.1c1.9,0,3.5-1.6,3.5-3.5
		c0-2.6,0-5.1,0-7.7c0-2.4,0-4.8,0-7.2c0-0.7-0.2-1.5-0.7-2c-6.9-9.5-13.8-19-20.7-28.5c-6.7-9.4-13.4-18.7-20.1-28
		c-0.7-0.9-1.7-1.5-2.9-1.5c-7,0-14.1,0.1-21.2,0.1c-6.4,0-12.8,0-19.2,0c-1.9,0-3.5,1.5-3.5,3.5c0,4.9-0.1,9.9-0.1,14.9
		c0,0.8,0.2,1.5,0.7,2.2c6.9,9.5,13.8,19,20.7,28.6C1909.7,63.5,1916.4,72.9,1923.1,82.2L1923.1,82.2z"/>
	<path class="st0" d="M2056.9,5.1c13.4-0.1,26.9-0.1,40.4,0c1.9,0,3.5,1.6,3.5,3.5l0,6.3c0,2.9,0,5.8,0.1,8.7c0,0.7-0.2,1.4-0.6,2
		c-28.3,40.5-55.6,75.5-83.9,116c-0.4,0.6-0.6,1.3-0.6,2c0,14.3-0.1,28.7,0,43.1c0,14.7,0.1,29.3,0.2,43.8c0,2-1.6,3.6-3.6,3.6
		h-41.9c-2,0-3.6-1.6-3.6-3.6c-0.1-16.2-0.1-32.5-0.1-48.8c0-16.1,0-32,0.1-48c0-0.7,0.2-1.4,0.6-2c14.4-20.9,28.9-41.9,43.4-62.9
		c14.4-20.8,28.8-41.6,43.2-62.2C2054.7,5.6,2055.8,5.1,2056.9,5.1L2056.9,5.1z"/>
	<path class="st0" d="M913.7,511c-1.7,3.8-5.6,6.3-9.8,6.2c-3.7,0-7.3-0.1-11-0.1c-5.9,0-11.7,0-17.4,0.1c-3.7,0-7.1-1.8-9.1-4.9
		c-0.5-0.8-1-1.6-1.9-3.1c0,0-0.5-1.5-0.2-3.4c0.5-2.5,16.7-36.7,39.3-83.1c10.9-24.2,21.8-48.4,32.7-72.6c0.6-1.3,1.9-2.1,3.3-2.1
		c12.4,0,24.8,0,37.2,0c1.4,0,2.7,0.8,3.2,2.1l90,208.9c0.1,0.5,0.2,0.9,0.3,1.4c0,4,0.1,8,0,11.9c0,2-1.7,3.6-3.6,3.6H856.5
		c-1.2,0-2.4-0.7-3-1.7c-4.4-7.6-4.2-7.3-8.6-14.8c-0.7-1.2-0.7-2.6,0-3.8c4.1-7.2,8.2-14.4,12.2-21.6c1.2-2.3,3.6-3.7,6.2-3.7H1000
		c2.5,0,4.2-2.5,3.2-4.8c-14.5-34-29.1-67.9-43.7-101.8c-1.2-2.8-5.1-2.8-6.4-0.1C940,452.8,926.8,481.9,913.7,511L913.7,511z"/>
	<path class="st0" d="M1337.6,576c12.9,0,25.8,0,38.7,0c1.9,0,3.5-1.5,3.5-3.5c0-23.7,0-47.5,0-71.2c0-1.9-1.6-3.5-3.5-3.5
		c-12.9,0-25.8,0-38.7,0c-1.9,0-3.5,1.5-3.5,3.5v71.2C1334.1,574.4,1335.7,576,1337.6,576L1337.6,576z"/>
	<path class="st0" d="M1334.1,366.5c0-4.9,0-9.9,0-14.8c0-2,1.6-3.6,3.6-3.6c13.5-0.1,26.8,0,40.3,0c1.1,0,2.1,0.5,2.8,1.4
		c20.4,26.6,40.9,53.2,61.3,79.8c1.4,1.8,4.2,1.8,5.6,0c20.4-26.6,40.8-53.1,61.2-79.7c0.7-0.9,1.7-1.4,2.8-1.4
		c13.8-0.1,26.9,0,40.4,0c1.9,0,3.5,1.6,3.5,3.5v220.9c0,1.9-1.6,3.5-3.5,3.5h-38.5c-2,0-3.6-1.6-3.6-3.6c0-44.2,0-88.4,0-132.6
		c0-3.4-4.3-4.9-6.4-2.2c-17,21.8-34.1,43.5-51.1,65.3c-0.7,0.9-1.8,1.5-3,1.5c-3.6,0-5.8,0-9.3,0c-1.1,0-2.2-0.5-2.9-1.4
		c-34.1-44.8-68.3-89.6-102.4-134.4C1334.4,368,1334.2,367.2,1334.1,366.5L1334.1,366.5z"/>
	<path class="st0" d="M1607.8,393.6l165.8,0c1.9,0,3.4-1.5,3.4-3.5c0-12.9-0.1-25.7-0.1-38.6c0-1.9-1.6-3.4-3.4-3.4h-165.7
		c-1.9,0-3.4,1.5-3.4,3.5v38.6C1604.4,392,1605.9,393.6,1607.8,393.6L1607.8,393.6z"/>
	<path class="st0" d="M1607.8,439.2l152.7,0c1.9,0,3.4,1.5,3.4,3.5v38.6c0,1.9-1.5,3.5-3.4,3.5c-50.9,0-101.8,0-152.7,0
		c-1.9,0-3.4-1.5-3.4-3.5v-38.7C1604.3,440.8,1605.9,439.2,1607.8,439.2L1607.8,439.2z"/>
	<path class="st0" d="M1607.8,530.5c55.2,0,110.5,0,165.8,0c1.9,0,3.5,1.5,3.4,3.5c0,12.9-0.1,25.8-0.1,38.7c0,1.9-1.6,3.4-3.4,3.4
		h-165.7c-1.9,0-3.4-1.5-3.4-3.5v-38.6C1604.3,532,1605.9,530.5,1607.8,530.5L1607.8,530.5z"/>
	<path class="st0" d="M1816.2,530.4c35.4,0,70.8,0,106.1,0.1c2.5,0,4.9-0.5,7.1-1.6c7.4-3.7,19.3-11.2,28.9-24.9
		c3.3-4.8,12.9-18.9,13.8-39.3c0.9-22.1-8.5-46.7-28.6-60.8c-6.9-4.9-13.8-7.5-19.1-9.1c-2.6-0.8-5.3-1.1-8.1-1.1
		c-33.4,0-66.8,0-100.1,0c-2,0-3.6-1.6-3.6-3.6v-38.5c0-2,1.6-3.6,3.6-3.6h117.8c1.6,0,3.2,0.2,4.8,0.6c4.6,1.3,10.5,3.3,17.1,6.3
		c6,2.9,23.8,11.9,39.4,31.4c3.3,4.2,12.1,15.8,18.4,33.3c1.4,4,6.9,20,7,41.8c0.1,18.6-3.8,32.9-5.9,39.5
		c-3.2,10.1-8.9,27.8-24.4,43.9c-7.5,7.8-14.7,12.5-19.3,15.5c-12.3,8-23.9,12.4-32.5,15c-1.3,0.4-2.7,0.6-4,0.6
		c-39.4,0-78.8,0-118.2-0.1c-1.9,0-3.5-1.6-3.5-3.5v-38.6C1812.8,531.9,1814.3,530.4,1816.2,530.4L1816.2,530.4z"/>
	<path class="st0" d="M1410.7,188.3l107.2,0c0.3,0,0.7-0.1,1-0.2c6.6-2.6,21.8-9.7,33.6-26.2c12.5-17.5,13.7-35.1,13.9-39.5
		c1-23.2-9.5-47.1-28.7-61.1c-8.2-6-16.4-8.9-22.1-10.4c-0.3-0.1-0.5-0.1-0.8-0.1c-34.7,0-69.3-0.1-104-0.1c-2,0-3.6-1.6-3.6-3.6
		V8.6c0-1.9,1.6-3.5,3.5-3.5h120c0.6,0.1,1.1,0.2,1.6,0.2c4.6,1.4,10.7,3.7,17.6,7.1c22.9,11.4,36,27.1,39.6,31.6
		c3.3,4.2,12.2,15.9,18.5,33.5c1.4,4,7,20.1,7.1,42c0.1,18.7-3.8,33.1-5.9,39.7c-3.2,10.2-9,27.9-24.6,44.1
		c-7.6,7.9-14.9,12.7-19.4,15.6c-12,7.8-23.3,12.1-31.6,14.6c-1.4,0.4-2.7,0.6-4.2,0.6h-118.6c-2,0-3.6-1.6-3.6-3.6v-38.7
		C1407.2,189.9,1408.8,188.3,1410.7,188.3L1410.7,188.3z"/>
	<path class="st0" d="M1086.9,50.9l113.5,0c0.4,0,0.8,0.1,1.2,0.2c6.8,2.2,11.3,5.4,13.9,7.6c1.7,1.4,3.7,3.1,5.7,5.9
		c1.2,1.7,4.7,6.9,5,14.4c0.2,6.6-2.2,11.3-3.8,14.2c-1.1,2.2-3.6,6.8-8.7,10.8c-4.7,3.7-9.4,5.1-12.2,5.7c-0.3,0.1-0.5,0.1-0.8,0.1
		c-37.9,0-75.8,0-113.8,0c-2,0-3.6,1.6-3.6,3.6c0,39,0,78.1,0,117.1c0,2,1.6,3.6,3.6,3.6h38.5c1.9,0,3.5-1.6,3.5-3.5l0.2-71.5
		c0-2,1.6-3.6,3.6-3.6c16.7-0.2,33.2,0.1,49.8,0.1c1.4,0,2.7,0.8,3.4,1.9c25.1,42.8,43.3,73.9,43.8,74.8c0.1,0.1,0.3,0.4,0.6,0.8
		c0.7,0.6,1.5,1,2.5,1c14.5,0,29.1,0.2,43.5,0.1c1.9,0,3.4-1.5,3.5-3.4c0.2-5-0.1-10.2-0.1-15.2c0-0.7-0.2-1.4-0.6-2
		c-14.3-20.9-28.5-41.8-42.8-62.8c-1.2-1.8-0.5-4.3,1.5-5.2c6.2-2.7,14.4-7.5,21.8-15.6c16.8-18.7,16.6-41.8,16.6-51
		c-0.1-8.8-0.4-25.7-11.5-42.7c-15.3-23.4-40-29.7-46.8-31.2c-0.2-0.1-0.5-0.1-0.7-0.1c-43.4,0-86.8,0-130.2,0
		c-1.9,0-3.5,1.6-3.5,3.5c0,12.9,0.1,25.9,0.1,38.8C1083.3,49.3,1084.9,50.9,1086.9,50.9L1086.9,50.9z"/>
	<path class="st0" d="M1142,422.7l0-71.2c0-1.9-1.6-3.5-3.5-3.5h-38.6c-1.9,0-3.5,1.6-3.5,3.5v71.1c0,1.9,1.6,3.5,3.5,3.5l38.6,0
		C1140.5,426.2,1142,424.6,1142,422.7L1142,422.7z"/>
	<path class="st0" d="M1285.3,351.5v220.9c0,1.9-1.6,3.5-3.5,3.5c-12.9,0-25.7,0-38.6,0c-1.9,0-3.5-1.6-3.5-3.5c0-28,0-56.1,0-84.1
		c0-1.9-1.6-3.5-3.5-3.5c-30.2,0-60.5,0-90.7,0c-1.9,0-3.5,1.6-3.5,3.5c0,28.1,0,56.1,0,84.1c0,1.9-1.6,3.5-3.5,3.5h-38.6
		c-1.9,0-3.5-1.6-3.5-3.5V442.7c0-1.9,1.6-3.5,3.5-3.5l136.3,0.1c1.9,0,3.5-1.6,3.5-3.5c0-28.1,0-56.2,0-84.2c0-1.9,1.6-3.5,3.5-3.5
		h38.6C1283.8,348,1285.3,349.6,1285.3,351.5L1285.3,351.5z"/>
	<path class="st0" d="M1760.9,44.5c0,1.6,1.1,3,2.6,3.4c5.2,1.3,11.8,3.5,18.9,7.4c6.1,3.3,19.2,10.6,28.7,26.2
		c2.1,3.4,9.8,16.7,10.3,35.6c0.2,6.4-0.2,29.6-17.9,49.8c-14.2,16.1-31.7,21.3-39.8,23c-1.6,0.3-2.8,1.8-2.8,3.4v35.8
		c0,1.9,1.6,3.5,3.5,3.5h22.6c2,0,3.9-0.3,5.8-0.9c5.7-1.9,12.6-4.6,20.1-8.8c14.5-8,23.6-17.1,26-19.7c17.2-17.7,23.7-37.3,26.1-46
		c3.4-12.5,3.5-21.8,3.5-38.8c0.1-17.1,0-29.9-5.8-45.4c-0.9-2.4-5-13.2-13.9-25.4c-2.7-3.7-10.1-13.3-22.4-22.8
		c-5.6-4.3-16.2-12.3-32.2-17.2c-3.7-1.2-6.9-1.9-9.4-2.4c-0.8-0.2-1.6-0.2-2.5-0.2h-17.8c-2,0-3.6,1.6-3.6,3.6L1760.9,44.5
		L1760.9,44.5z"/>
	<path class="st0" d="M1744,44.6c0,1.6-1,3-2.6,3.3c-5.2,1.3-11.8,3.5-19,7.4c-6.1,3.3-19.2,10.6-28.7,26.2
		c-2.1,3.4-9.8,16.7-10.3,35.6c-0.2,6.4,0.2,29.6,17.9,49.8c14.2,16.1,31.7,21.3,39.8,23c1.6,0.3,2.8,1.8,2.8,3.4v35.8
		c0,1.9-1.6,3.5-3.5,3.5h-22c-2.6,0-5.1-0.4-7.5-1.3c-5.5-1.9-12-4.5-19-8.4c-14.5-8-23.6-17.1-26-19.7
		c-17.2-17.7-23.7-37.3-26.1-46c-3.4-12.5-3.5-21.8-3.5-38.8c-0.1-17.1,0-29.9,5.8-45.4c0.9-2.4,5-13.2,13.9-25.4
		c2.7-3.7,10.1-13.3,22.4-22.8c5.6-4.3,16.2-12.3,32.2-17.2c3.7-1.1,6.9-1.9,9.3-2.4c0.9-0.2,1.8-0.2,2.7-0.2h17.8
		c2,0,3.6,1.6,3.6,3.6L1744,44.6L1744,44.6z"/>
</g>
<g>
	<path class="st1" d="M70.3,462c66-114,132-228,198-342h132l-66,114h132c0,0,115-200,132-229h-132l-66,115l-66-115h-132
		c-66,115-132,229-198,343L70.3,462z M664.3,120c-66,114-132,228-198,342h-132l66,114h132c0,0,173-300,198-342L664.3,120L664.3,120z
		 M334.3,462l66-114h-132c0,0-121,209-132,228h132L334.3,462L334.3,462L334.3,462z"/>
	<polygon class="st1" points="70.3,462 136.3,348 4.3,348 	"/>
	<polygon class="st1" points="4.3,348 136.3,348 70.3,234 	"/>
	<polygon class="st1" points="70.3,234 136.3,348 202.3,234 	"/>
	<polygon class="st1" points="70.3,234 202.3,234 136.3,120 	"/>
	<polygon class="st1" points="136.3,120 202.3,234 268.3,120 	"/>
	<polygon class="st1" points="136.3,120 268.3,120 202.3,5 	"/>
	<polygon class="st1" points="202.3,5 268.3,120 334.3,5 	"/>
	<polygon class="st1" points="334.3,5 268.3,120 400.3,120 	"/>
	<polygon class="st1" points="400.3,120 334.3,234 466.3,234 	"/>
	<polygon class="st1" points="400.3,120 466.3,234 532.3,120 	"/>
	<polygon class="st1" points="400.3,120 532.3,120 466.3,5 	"/>
	<polygon class="st1" points="466.3,5 532.3,120 598.3,5 	"/>
	<polygon class="st1" points="400.3,348 268.3,348 334.3,462 	"/>
	<polygon class="st1" points="334.3,462 268.3,348 202.3,462 	"/>
	<polygon class="st1" points="334.3,462 202.3,462 268.3,576 	"/>
	<polygon class="st1" points="268.3,576 202.3,462 136.3,576 	"/>
	<polygon class="st1" points="334.3,462 400.3,576 466.3,462 	"/>
	<polygon class="st1" points="466.3,462 400.3,576 532.3,576 	"/>
	<polygon class="st1" points="466.3,462 532.3,576 598.3,462 	"/>
	<polygon class="st1" points="466.3,462 598.3,462 532.3,348 	"/>
	<polygon class="st1" points="532.3,348 598.3,462 664.3,348 	"/>
	<polygon class="st1" points="532.3,348 664.3,348 598.3,234 	"/>
	<polygon class="st1" points="598.3,234 664.3,348 730.3,234 	"/>
	<polygon class="st1" points="598.3,234 730.3,234 664.3,120 	"/>
</g>
</svg>
