<?xml version="1.0" encoding="UTF-8"?>
<svg id="Layer_2" data-name="Layer 2" xmlns="http://www.w3.org/2000/svg" viewBox="0 0 22.83 22.83">
  <defs>
    <style>
      .cls-1 {
        fill: #c69963;
      }
    </style>
  </defs>
  <g id="Layer_3" data-name="Layer 3">
    <g>
      <path class="cls-1" d="m22.33,22.83H.5c-.28,0-.5-.22-.5-.5V.5C0,.22.22,0,.5,0h10.83c.28,0,.5.22.5.5s-.22.5-.5.5H1v20.83h20.83v-10.34c0-.28.22-.5.5-.5s.5.22.5.5v10.84c0,.28-.22.5-.5.5h0Z"/>
      <g>
        <path class="cls-1" d="m22.33,6.93c-.28,0-.5-.22-.5-.5V1s-5.43,0-5.43,0c-.28,0-.5-.22-.5-.5S16.13,0,16.41,0h5.92c.28,0,.5.23.5.5v5.93c0,.28-.22.5-.5.5h0Z"/>
        <path class="cls-1" d="m12.95,10.39c-.13,0-.26-.05-.35-.15-.2-.2-.2-.51,0-.71L21.17.96c.2-.2.51-.2.71,0,.2.2.2.51,0,.71l-8.58,8.58c-.1.1-.23.15-.35.15h0Z"/>
      </g>
    </g>
  </g>
</svg>