<?xml version="1.0" encoding="UTF-8"?>
<svg id="Layer_2" data-name="Layer 2" xmlns="http://www.w3.org/2000/svg" viewBox="0 0 24 20.67">
  <defs>
    <style>
      .cls-1 {
        fill: #000;
      }
    </style>
  </defs>
  <g id="Layer_3" data-name="Layer 3">
    <g>
      <path class="cls-1" d="m12.17,20.67c-.08,0-.17-.02-.24-.06-.03-.01-.05-.03-.07-.05-.04-.03-.17-.12-.37-.26-.78-.54-2.61-1.82-3.81-2.74C3.17,14.04.77,11.44.34,9.59.13,8.93,0,8.19,0,7.43c-.03-2.03.74-3.98,2.09-5.36C3.32.83,4.92.14,6.61.13h0c2.14,0,4.06.97,5.33,2.62C13.18,1.05,15.1.03,17.21,0h.13c3.62,0,6.61,3.2,6.66,7.13,0,.76-.09,1.5-.3,2.21-.36,1.81-2.76,4.56-7.11,8.12-1.71,1.41-3.11,2.46-4.14,3.12-.08.05-.17.08-.27.08h0ZM6.68,1.13c-1.49,0-2.84.59-3.88,1.64-1.17,1.19-1.83,2.88-1.81,4.65,0,.66.11,1.3.31,1.91.26,1.14,1.67,3.31,6.99,7.44,1.18.91,2.99,2.17,3.77,2.71.04.03.08.06.12.09.97-.64,2.26-1.63,3.77-2.87,5.2-4.25,6.55-6.48,6.78-7.59.19-.65.28-1.3.27-1.96-.04-3.39-2.58-6.14-5.66-6.14h-.11c-2.01.03-3.82,1.11-4.84,2.9-.09.15-.25.25-.43.25-.14,0-.34-.09-.43-.24-1.06-1.75-2.87-2.79-4.84-2.79h0Z"/>
      <path class="cls-1" d="m20.09,9.07s-.07,0-.1-.01c-.27-.06-.44-.32-.39-.59l.07-.3c.09-.32.14-.64.13-.98-.02-1.68-1.14-2.99-2.55-2.99-.28,0-.5-.22-.5-.5s.22-.5.5-.5h0c1.96,0,3.52,1.75,3.55,3.98,0,.44-.05.87-.17,1.27l-.06.23c-.05.24-.26.4-.49.4h0Z"/>
    </g>
  </g>
</svg>