<?xml version="1.0" encoding="UTF-8"?>
<svg id="Layer_2" data-name="Layer 2" xmlns="http://www.w3.org/2000/svg" viewBox="0 0 29.12 29.13">
  <defs>
    <style>
      .cls-1 {
        fill: #000;
      }
    </style>
  </defs>
  <g id="Layer_3" data-name="Layer 3">
    <g>
      <path class="cls-1" d="m16.58,25.84c-4.08,4.08-10.37,4.41-14.04.75-3.66-3.66-3.33-9.96.75-14.04,2.71-2.71,6.61-3.86,10.03-3L21.33,1.55c1.92-1.92,4.88-2.07,6.6-.35,1.55,1.55,1.58,4.18.07,6.1l-.23.29-.35.02-2.15-.02.03,2.81-2.81-.03.03,2.41-.23.32-2.72,2.72c.87,3.43-.28,7.32-3,10.03h0ZM4.23,13.49c-3.5,3.5-3.79,8.91-.64,12.06s8.56,2.86,12.06-.64c2.46-2.46,3.41-5.9,2.47-8.97l-.12-.41,3.14-3.14-.04-3.45,2.81.03-.03-2.81,3.29.04c.83-1.31.74-2.95-.27-3.96-1.21-1.21-3.28-1.1-4.62.24l-8.66,8.66-.41-.12c-3.07-.94-6.51,0-8.97,2.47h0Z"/>
      <path class="cls-1" d="m9.77,22.95c-1.1,1.1-2.81,1.19-3.8.2s-.9-2.69.2-3.8,2.81-1.19,3.8-.2.9,2.69-.2,3.8h0Zm-2.66-2.66c-.53.53-.57,1.34-.1,1.82s1.29.43,1.82-.1.57-1.34.1-1.82-1.29-.43-1.82.1h0Z"/>
    </g>
  </g>
</svg>