<?xml version="1.0" encoding="UTF-8"?>
<svg id="Layer_2" data-name="Layer 2" xmlns="http://www.w3.org/2000/svg" viewBox="0 0 19.5 23.25">
  <defs>
    <style>
      .cls-1 {
        fill: #c69963;
      }
    </style>
  </defs>
  <g id="Layer_3" data-name="Layer 3">
    <g>
      <path class="cls-1" d="m9.75,23.25c-.12,0-.23-.04-.32-.12-.39-.33-9.43-8.1-9.43-13.38S4.37,0,9.75,0s9.75,4.37,9.75,9.75-9.04,13.05-9.43,13.38c-.09.08-.21.12-.32.12h0ZM9.75,1C4.93,1,1,4.93,1,9.75c0,4.3,7.13,10.89,8.75,12.33,1.62-1.44,8.75-8.04,8.75-12.33C18.5,4.93,14.58,1,9.75,1h0Z"/>
      <path class="cls-1" d="m9.75,14.25c-2.48,0-4.5-2.02-4.5-4.5s2.02-4.5,4.5-4.5,4.5,2.02,4.5,4.5-2.02,4.5-4.5,4.5h0Zm0-8c-1.93,0-3.5,1.57-3.5,3.5s1.57,3.5,3.5,3.5,3.5-1.57,3.5-3.5-1.57-3.5-3.5-3.5h0Z"/>
    </g>
  </g>
</svg>