<?xml version="1.0" encoding="UTF-8"?>
<svg id="Layer_2" data-name="Layer 2" xmlns="http://www.w3.org/2000/svg" viewBox="0 0 21 23.08">
  <defs>
    <style>
      .cls-1 {
        fill: #c69963;
      }
    </style>
  </defs>
  <g id="Layer_3" data-name="Layer 3">
    <g>
      <path class="cls-1" d="m19.5,23.08H1.5c-.83,0-1.5-.67-1.5-1.5v-10.67c0-.83.67-1.5,1.5-1.5h18c.83,0,1.5.67,1.5,1.5v10.67c0,.83-.67,1.5-1.5,1.5h0ZM1.5,10.42c-.28,0-.5.22-.5.5v10.67c0,.28.22.5.5.5h18c.28,0,.5-.22.5-.5v-10.67c0-.28-.22-.5-.5-.5H1.5Z"/>
      <path class="cls-1" d="m16.92,10.17c-.28,0-.5-.22-.5-.5v-2.75c0-3.26-2.65-5.92-5.92-5.92s-5.92,2.65-5.92,5.92v2.75c0,.28-.22.5-.5.5s-.5-.22-.5-.5v-2.75C3.58,3.1,6.69,0,10.5,0s6.92,3.1,6.92,6.92v2.75c0,.28-.22.5-.5.5h0Z"/>
      <path class="cls-1" d="m12,19.58h-3v-2.57c-.67-.48-1.08-1.26-1.08-2.09,0-1.42,1.16-2.58,2.58-2.58s2.58,1.16,2.58,2.58c0,.83-.41,1.61-1.08,2.09v2.57h0Zm-2-1h1v-2.14l.26-.14c.51-.28.83-.81.83-1.38,0-.87-.71-1.58-1.58-1.58s-1.58.71-1.58,1.58c0,.57.32,1.1.82,1.38l.26.14v2.14h0Z"/>
    </g>
  </g>
</svg>