<?xml version="1.0" encoding="UTF-8"?>
<svg id="Layer_2" data-name="Layer 2" xmlns="http://www.w3.org/2000/svg" viewBox="0 0 16.28 22.14">
  <defs>
    <style>
      .cls-1 {
        fill: #c69963;
      }
    </style>
  </defs>
  <g id="Layer_3" data-name="Layer 3">
    <g>
      <path class="cls-1" d="m8.23,9.76c-2.37,0-4.3-2.19-4.3-4.88S5.86,0,8.23,0s4.3,2.19,4.3,4.88-1.93,4.88-4.3,4.88h0Zm0-8.76c-1.82,0-3.3,1.74-3.3,3.88s1.48,3.88,3.3,3.88,3.3-1.74,3.3-3.88-1.48-3.88-3.3-3.88h0Z"/>
      <path class="cls-1" d="m15.46,22.14H.83c-.26,0-.48-.2-.5-.47L0,16.96c-.1-1.54,1.1-3.31,2.62-3.87,3.56-1.27,7.48-1.27,11.03,0,1.69.62,2.72,2.51,2.62,3.87l-.32,4.72c-.02.26-.24.47-.5.47h0Zm-14.16-1h13.7l.29-4.25c.07-.99-.76-2.42-1.97-2.87-3.32-1.19-7.01-1.19-10.34,0-1.2.44-2.03,1.88-1.96,2.87l.29,4.25h0Z"/>
    </g>
  </g>
</svg>