<?xml version="1.0" encoding="utf-8"?>
<!-- Generator: Adobe Illustrator 27.4.1, SVG Export Plug-In . SVG Version: 6.00 Build 0)  -->
<svg version="1.1" id="Layer_2_00000039839111578513845450000012230835153625025690_"
	 xmlns="http://www.w3.org/2000/svg" xmlns:xlink="http://www.w3.org/1999/xlink" x="0px" y="0px" viewBox="0 0 24 20.7"
	 style="enable-background:new 0 0 24 20.7;" xml:space="preserve">
<style type="text/css">
	.st0{fill:#C69963;}
</style>
<path class="st0" d="M12.2,20.7c-0.1,0-0.2,0-0.2-0.1c0,0-0.1,0-0.1,0c0,0-0.2-0.1-0.4-0.3c-0.8-0.5-2.6-1.8-3.8-2.7
	c-4.5-3.5-6.9-6.1-7.3-8C0.1,8.9,0,8.2,0,7.4c0-2,0.7-4,2.1-5.4c1.2-1.2,2.8-1.9,4.5-1.9l0,0c2.1,0,4.1,1,5.3,2.6
	C13.2,1,15.1,0,17.2,0h0.1C21,0,23.9,3.2,24,7.1c0,0.8-0.1,1.5-0.3,2.2c-0.4,1.8-2.8,4.6-7.1,8.1c-1.7,1.4-3.1,2.5-4.1,3.1
	C12.4,20.6,12.3,20.7,12.2,20.7L12.2,20.7L12.2,20.7z"/>
</svg>
