<?xml version="1.0" encoding="utf-8"?>
<!-- Generator: Adobe Illustrator 27.4.1, SVG Export Plug-In . SVG Version: 6.00 Build 0)  -->
<svg version="1.1" id="Layer_1" xmlns="http://www.w3.org/2000/svg" xmlns:xlink="http://www.w3.org/1999/xlink" x="0px" y="0px"
	 viewBox="0 0 4181.4 1267.4" style="enable-background:new 0 0 4181.4 1267.4;" xml:space="preserve">
<style type="text/css">
	.st0{fill:#EDEDEE;}
	.st1{fill:#E4E5E6;}
</style>
<g>
	<path class="st0" d="M1250,0.2H0V414h413.8v853.4h422.4V414H1250V0.2z M1663.8,0.2H2500V414h-836.2V0.2z M1663.8,831.7V414H1250
		v853.4h1250V832.3L1663.8,831.7z"/>
</g>
<path class="st0" d="M2880.3,313.1v258.6h-69V313.1h-103.4v-51.7h258.6v51.7H2880.3z M3160.2,468.2h-143.4
	c2.3,34.5,26.5,50.3,49.3,50.3c17.4,0,32-3.9,41.1-14.4l44.8,38.7c-19.2,24.7-53.9,39.5-85.9,39.5c-69,0-112.8-48.6-112.8-124.4
	c0-73.5,46.1-125,106.9-125c64,0,100.9,51.6,100.9,120.2C3161.1,462.3,3160.6,468.2,3160.2,468.2L3160.2,468.2z M3056.9,390.8
	c-22.8,0-37,8.5-39.3,42.9h82.2C3098.1,399.3,3085.3,390.8,3056.9,390.8L3056.9,390.8z M3311.4,583c-62.6,0-112.4-51.2-112.4-124.7
	s48.4-125.2,115.1-125.2c45.7,0,74.9,22.4,95,53l-41.6,42c-14.2-20.1-29.2-34.3-54.8-34.3c-30.2,0-49.8,25.1-49.8,64.4
	c0,38.4,19.6,64,49.8,64c24.7,0,40.2-11,56.6-30.6l40.2,37.9C3386.3,560.6,3358.9,583,3311.4,583L3311.4,583z M3595.8,571.7V448.2
	c0-42.9-8.2-55.7-34.3-55.7c-26,0-34.7,12.8-34.7,54.4v124.8h-69V276.5l69-31.5v109.2c0-11.4,27.6-21,52.8-21
	c61.2,0,85.2,42,85.2,109.6v128.9L3595.8,571.7L3595.8,571.7z"/>
<path class="st1" d="M2907.4,778.1c-11.4-21.9-29.7-34.7-58.5-34.7c-48,0-75.4,42-75.4,101.4c0,57.6,27.9,101.4,75.8,101.4
	c28.8,0,45.7-12.3,62.6-40.6l53.9,32c-21.9,45.2-60.3,72.2-118.3,72.2c-83.6,0-139.8-64-139.8-164.9c0-97.3,58.5-164.9,142.1-164.9
	c60.3,0,96.9,29.2,116.9,70.8L2907.4,778.1L2907.4,778.1z M3142.2,838.4c-10.1-9.1-20.2-15.5-34.4-15.5c-24.6,0-38.5,10.5-38.5,52.1
	v123.4h-69V757h69v23.9c17.2-11.4,24.8-21,47.2-21c20.5,0,35,8.2,43.2,16.9L3142.2,838.4z M3345.2,996.3v-7.6
	c-17.2,11.4-27.6,21-52.8,21c-61.2,0-85.2-42-85.2-109.6V757h51.7v137.6c0,42.9,16.8,55.7,42.9,55.7c26,0,43.3-12.8,43.3-54.4V757
	h69v241.4h-71.7L3345.2,996.3L3345.2,996.3z M3595.2,998.4V875c0-42.9-3.9-55.7-30-55.7c-26,0-30.4,12.8-30.4,54.4v124.8h-69V757.1
	h69v23.9c0-11.4,23.3-21,48.4-21c61.2,0,80.9,42,80.9,109.6v128.9L3595.2,998.4z M3831,1009.7c-62.6,0-112.4-51.2-112.4-124.7
	s48.4-125.2,115.1-125.2c45.7,0,74.9,22.4,95,53l-41.5,42c-14.2-20.1-29.2-34.3-54.8-34.3c-30.2,0-49.8,25.1-49.8,64.4
	c0,38.4,19.6,64,49.8,64c24.6,0,40.2-11,56.6-30.6l40.2,37.9C3905.9,987.4,3878.5,1009.7,3831,1009.7L3831,1009.7z M4112.5,1004.7
	V875c0-42.9-8.2-55.7-34.3-55.7c-26,0-34.7,12.8-34.7,54.4v124.8h-69V703.3l69-31.5v109.2c0-11.4,27.6-21,52.7-21
	c61.2,0,85.2,42,85.2,109.6v128.9h-67.3L4112.5,1004.7L4112.5,1004.7z"/>
</svg>
